<svg width="454" height="353" viewBox="0 0 454 353" fill="none" xmlns="http://www.w3.org/2000/svg">
<g filter="url(#filter0_d_381_2)">
<path d="M182.827 220.074L320.985 0.0854091C321.001 0.060304 321.022 0.0394105 321.048 0.0245491C321.073 0.00968768 321.102 0.00130861 321.132 0.00014128C321.161 -0.00102605 321.191 0.00505467 321.217 0.0178525C321.244 0.0306502 321.267 0.0497779 321.285 0.0735695L449.965 172.745C449.982 172.767 449.993 172.793 449.997 172.82C450.002 172.847 450 172.875 449.992 172.902C449.984 172.928 449.97 172.952 449.951 172.973C449.932 172.993 449.909 173.008 449.883 173.017L231.405 254.725C231.265 254.779 231.151 254.882 231.085 255.014L230.75 255.681C230.684 255.809 230.715 255.908 230.844 255.977C231.369 256.253 232.04 256.458 232.502 256.762C249.455 267.963 267.561 275.244 287.13 280.549C307.184 285.987 327.231 291.453 347.269 296.947C348.208 297.205 349.095 297.88 349.929 298.972C350.019 299.09 350.067 299.222 350.075 299.366L351.244 319.625C351.252 319.756 351.19 319.818 351.058 319.81C345.472 319.505 339.889 319.185 334.31 318.851C296.85 316.617 260.354 309.501 224.825 297.503C214.239 293.932 203.992 289.677 193.658 285.454C191.716 284.661 189.873 284.318 188.567 286.094C174.841 304.767 161.1 323.429 147.343 342.081C145.961 343.956 144.374 345.329 142.113 344.931C96.1208 336.812 50.0814 328.959 4.10914 320.738C4.08117 320.733 4.05567 320.719 4.03626 320.699C4.01685 320.678 4.00452 320.652 4.00102 320.623C3.99753 320.595 4.00304 320.566 4.01678 320.54C4.03052 320.515 4.05179 320.494 4.07757 320.481L138.418 256.983C138.436 256.974 138.451 256.961 138.461 256.945C138.472 256.928 138.478 256.909 138.478 256.889C138.478 256.87 138.473 256.851 138.464 256.834C138.454 256.817 138.439 256.803 138.422 256.793C133.516 254.047 128.807 251.173 123.376 249.579C110.429 245.774 97.4641 242.041 84.4807 238.378C81.1651 237.443 79.3178 236.78 77.664 233.433C64.0806 205.964 50.5577 178.465 37.0953 150.936C36.6848 150.103 36.4243 149.333 36.302 148.473C36.2651 148.204 36.3809 148.093 36.6493 148.137C69.4052 153.515 102.126 158.917 134.811 164.342C140.033 165.211 143.352 165.534 145.941 169.513C152.283 179.242 158.766 188.878 165.389 198.418C170.627 205.964 176.623 213.021 182.705 220.081C182.713 220.091 182.722 220.098 182.733 220.103C182.744 220.108 182.756 220.11 182.768 220.109C182.78 220.108 182.792 220.105 182.802 220.099C182.813 220.092 182.821 220.084 182.827 220.074Z" fill="white"/>
</g>
<defs>
<filter id="filter0_d_381_2" x="0" y="0" width="454" height="353" filterUnits="userSpaceOnUse" color-interpolation-filters="sRGB">
<feFlood flood-opacity="0" result="BackgroundImageFix"/>
<feColorMatrix in="SourceAlpha" type="matrix" values="0 0 0 0 0 0 0 0 0 0 0 0 0 0 0 0 0 0 127 0" result="hardAlpha"/>
<feOffset dy="4"/>
<feGaussianBlur stdDeviation="2"/>
<feComposite in2="hardAlpha" operator="out"/>
<feColorMatrix type="matrix" values="0 0 0 0 0 0 0 0 0 0 0 0 0 0 0 0 0 0 0.25 0"/>
<feBlend mode="normal" in2="BackgroundImageFix" result="effect1_dropShadow_381_2"/>
<feBlend mode="normal" in="SourceGraphic" in2="effect1_dropShadow_381_2" result="shape"/>
</filter>
</defs>
</svg>
