<svg width="446" height="345" viewBox="0 0 446 345" fill="none" xmlns="http://www.w3.org/2000/svg">
<path d="M178.827 220.074L316.985 0.0854091C317.001 0.060304 317.022 0.0394105 317.048 0.0245491C317.073 0.00968768 317.102 0.00130861 317.132 0.00014128C317.161 -0.00102605 317.191 0.00505467 317.217 0.0178525C317.244 0.0306502 317.267 0.0497779 317.285 0.0735695L445.965 172.745C445.982 172.767 445.993 172.793 445.997 172.82C446.002 172.847 446 172.875 445.992 172.902C445.984 172.928 445.97 172.952 445.951 172.973C445.932 172.993 445.909 173.008 445.883 173.017L227.405 254.725C227.265 254.779 227.151 254.882 227.085 255.014L226.75 255.681C226.684 255.809 226.715 255.908 226.844 255.977C227.369 256.253 228.04 256.458 228.502 256.762C245.455 267.963 263.561 275.244 283.13 280.549C303.184 285.987 323.231 291.453 343.269 296.947C344.208 297.205 345.095 297.88 345.929 298.972C346.019 299.09 346.067 299.222 346.075 299.366L347.244 319.625C347.252 319.756 347.19 319.818 347.058 319.81C341.472 319.505 335.889 319.185 330.31 318.851C292.85 316.617 256.354 309.501 220.825 297.503C210.239 293.932 199.992 289.677 189.658 285.454C187.716 284.661 185.873 284.318 184.567 286.094C170.841 304.767 157.1 323.429 143.343 342.081C141.961 343.956 140.374 345.329 138.113 344.931C92.1208 336.812 46.0814 328.959 0.109144 320.738C0.0811705 320.733 0.0556682 320.719 0.0362585 320.699C0.0168487 320.678 0.00451957 320.652 0.00102329 320.623C-0.00247298 320.595 0.00304101 320.566 0.0167821 320.54C0.0305231 320.515 0.0517924 320.494 0.0775677 320.481L134.418 256.983C134.436 256.974 134.451 256.961 134.461 256.945C134.472 256.928 134.478 256.909 134.478 256.889C134.478 256.87 134.473 256.851 134.464 256.834C134.454 256.817 134.439 256.803 134.422 256.793C129.516 254.047 124.807 251.173 119.376 249.579C106.429 245.774 93.4641 242.041 80.4807 238.378C77.1651 237.443 75.3178 236.78 73.664 233.433C60.0806 205.964 46.5577 178.465 33.0953 150.936C32.6848 150.103 32.4243 149.333 32.302 148.473C32.2651 148.204 32.3809 148.093 32.6493 148.137C65.4052 153.515 98.1257 158.917 130.811 164.342C136.033 165.211 139.352 165.534 141.941 169.513C148.283 179.242 154.766 188.878 161.389 198.418C166.627 205.964 172.623 213.021 178.705 220.081C178.713 220.091 178.722 220.098 178.733 220.103C178.744 220.108 178.756 220.11 178.768 220.109C178.78 220.108 178.792 220.105 178.802 220.099C178.813 220.092 178.821 220.084 178.827 220.074Z" fill="#1B1648"/>
</svg>
